<?xml version="1.0" encoding="iso-8859-1"?>
<!-- Generator: Adobe Illustrator 17.1.0, SVG Export Plug-In . SVG Version: 6.00 Build 0)  -->
<!DOCTYPE svg PUBLIC "-//W3C//DTD SVG 1.1//EN" "http://www.w3.org/Graphics/SVG/1.1/DTD/svg11.dtd">
<svg version="1.1" id="Capa_1" xmlns="http://www.w3.org/2000/svg" xmlns:xlink="http://www.w3.org/1999/xlink" x="0px" y="0px"
	 viewBox="0 0 465 465" style="enable-background:new 0 0 465 465;" xml:space="preserve">
<g>
	<path d="M385.968,275.332c-3.287-22.721-22.883-40.236-46.5-40.236c-25.912,0-46.993,21.081-46.993,46.993v124.887
		c0,25.911,21.081,46.992,46.993,46.992c23.617,0,43.213-17.515,46.5-40.235c15.11-3.231,26.477-16.682,26.477-32.742v-72.917
		C412.445,292.014,401.078,278.563,385.968,275.332z M397.445,380.99c0,7.521-4.522,13.996-10.984,16.88v-65.781
		c0-4.143-3.357-7.5-7.5-7.5s-7.5,3.357-7.5,7.5v74.887c0,17.641-14.353,31.992-31.993,31.992s-31.993-14.352-31.993-31.992V282.089
		c0-17.641,14.353-31.993,31.993-31.993s31.993,14.353,31.993,31.993v20c0,4.143,3.357,7.5,7.5,7.5s7.5-3.357,7.5-7.5v-10.895
		c6.462,2.883,10.984,9.357,10.984,16.879V380.99z"/>
	<path d="M125.532,235.096c-23.617,0-43.214,17.516-46.5,40.236c-15.11,3.231-26.477,16.682-26.477,32.741v72.917
		c0,16.061,11.367,29.511,26.477,32.742c3.287,22.721,22.883,40.235,46.5,40.235c25.912,0,46.993-21.081,46.993-46.992V282.089
		C172.525,256.177,151.444,235.096,125.532,235.096z M157.525,406.976c0,17.641-14.353,31.992-31.993,31.992
		s-31.993-14.352-31.993-31.992v-74.887c0-4.143-3.357-7.5-7.5-7.5s-7.5,3.357-7.5,7.5v65.781
		c-6.462-2.884-10.984-9.358-10.984-16.88v-72.917c0-7.521,4.522-13.996,10.984-16.879v10.895c0,4.143,3.357,7.5,7.5,7.5
		s7.5-3.357,7.5-7.5v-20c0-17.641,14.353-31.993,31.993-31.993s31.993,14.353,31.993,31.993V406.976z"/>
	<path d="M396.903,79.129C352.988,35.216,294.603,11.032,232.5,11.032S112.012,35.216,68.097,79.129
		C24.184,123.042,0,181.429,0,243.532c0,4.143,3.357,7.5,7.5,7.5h5.173c4.143,0,7.5-3.357,7.5-7.5c0-3.288-2.116-6.082-5.061-7.094
		c1.766-55.437,24.188-107.3,63.592-146.702c41.08-41.08,95.7-63.704,153.796-63.704s112.716,22.624,153.796,63.704
		c39.403,39.402,61.826,91.266,63.592,146.702c-2.944,1.013-5.06,3.806-5.06,7.094c0,4.143,3.357,7.5,7.5,7.5h5.172
		c4.143,0,7.5-3.357,7.5-7.5C465,181.429,440.816,123.042,396.903,79.129z"/>
	<path d="M232.5,36.204c-114.32,0-207.327,93.007-207.327,207.328c0,16.029,1.838,31.991,5.464,47.46v53.54
		c0,4.143,3.357,7.5,7.5,7.5s7.5-3.357,7.5-7.5v-54.416c0-0.587-0.069-1.173-0.205-1.743c-3.489-14.599-5.259-29.685-5.259-44.841
		c0-106.05,86.277-192.328,192.327-192.328s192.327,86.278,192.327,192.328c0,15.156-1.77,30.242-5.259,44.841
		c-0.136,0.57-0.205,1.156-0.205,1.743v54.416c0,4.143,3.357,7.5,7.5,7.5s7.5-3.357,7.5-7.5v-53.54
		c3.626-15.469,5.464-31.431,5.464-47.46C439.827,129.211,346.82,36.204,232.5,36.204z"/>
</g>
<g>
</g>
<g>
</g>
<g>
</g>
<g>
</g>
<g>
</g>
<g>
</g>
<g>
</g>
<g>
</g>
<g>
</g>
<g>
</g>
<g>
</g>
<g>
</g>
<g>
</g>
<g>
</g>
<g>
</g>
</svg>
